<svg width="47" height="47" viewBox="0 0 47 47" fill="none" xmlns="http://www.w3.org/2000/svg">
<path d="M34.0254 20.9683L39.3754 15.9342L39.4066 15.903C40.5085 14.8011 41.1275 13.3066 41.1275 11.7482C41.1275 10.1899 40.5085 8.6954 39.4066 7.5935C38.3047 6.4916 36.8102 5.87256 35.2518 5.87256C33.6935 5.87256 32.199 6.4916 31.0971 7.5935C31.0971 7.60452 31.0769 7.6137 31.0659 7.62471L26.0318 12.9746L10.7935 7.4301C10.5309 7.33458 10.2464 7.31597 9.97357 7.37646C9.70072 7.43694 9.4508 7.57402 9.25314 7.77159L4.84689 12.1778C4.69335 12.3315 4.5758 12.5173 4.50272 12.7219C4.42964 12.9264 4.40285 13.1447 4.42428 13.3608C4.4457 13.577 4.51481 13.7857 4.62662 13.972C4.73843 14.1582 4.89016 14.3173 5.07087 14.4379L16.8007 22.2571L14.0798 24.9688H10.2813C9.89225 24.969 9.51919 25.1235 9.24396 25.3984L4.83771 29.8047C4.66587 29.9761 4.53919 30.1874 4.469 30.4198C4.39881 30.6521 4.3873 30.8983 4.4355 31.1362C4.48369 31.374 4.59009 31.5963 4.74518 31.783C4.90028 31.9697 5.09922 32.1151 5.32423 32.2061L12.0842 34.9104L14.783 41.6575L14.794 41.6869C14.8874 41.9129 15.0357 42.112 15.2255 42.2661C15.4153 42.4203 15.6406 42.5246 15.8809 42.5697C16.1213 42.6147 16.3691 42.599 16.6018 42.5241C16.8346 42.4491 17.0449 42.3172 17.2138 42.1403L21.5961 37.7561C21.7333 37.6203 21.8423 37.4588 21.9169 37.2808C21.9916 37.1028 22.0305 36.9118 22.0313 36.7188V32.9203L24.7411 30.2104L32.5604 41.9402C32.6809 42.1209 32.84 42.2727 33.0263 42.3845C33.2125 42.4963 33.4212 42.5654 33.6374 42.5868C33.8536 42.6082 34.0718 42.5814 34.2764 42.5084C34.4809 42.4353 34.6667 42.3177 34.8204 42.1642L39.2267 37.758C39.4242 37.5603 39.5613 37.3104 39.6218 37.0375C39.6823 36.7647 39.6637 36.4802 39.5681 36.2176L34.0254 20.9683ZM34.0126 38.8191L26.1933 27.0912C26.0735 26.9091 25.9146 26.7559 25.7282 26.6429C25.5418 26.5298 25.3325 26.4597 25.1156 26.4376C25.0661 26.4376 25.0183 26.4376 24.9706 26.4376C24.7775 26.4377 24.5864 26.4758 24.4081 26.5498C24.2298 26.6239 24.0678 26.7323 23.9315 26.869L19.5252 31.2753C19.2496 31.5502 19.0944 31.9233 19.0938 32.3126V36.1111L16.6942 38.5107L14.5829 33.2305C14.509 33.0472 14.3989 32.8807 14.2591 32.7409C14.1194 32.6012 13.9529 32.4911 13.7695 32.4172L8.49306 30.3059L10.8908 27.9063H14.6875C14.8804 27.9065 15.0715 27.8686 15.2498 27.7949C15.4281 27.7212 15.5902 27.6131 15.7267 27.4767L20.1329 23.0705C20.2868 22.9168 20.4046 22.7309 20.4779 22.5261C20.5512 22.3214 20.5781 22.1029 20.5566 21.8865C20.5352 21.6701 20.466 21.4611 20.354 21.2747C20.242 21.0883 20.0899 20.9291 19.9089 20.8086L8.18095 12.9875L10.6595 10.5108L25.9381 16.0664C26.2073 16.1653 26.4996 16.1832 26.7789 16.118C27.0581 16.0527 27.3122 15.9071 27.5097 15.6992L33.1901 9.6571C33.7438 9.11962 34.4867 8.82158 35.2583 8.82739C36.0299 8.8332 36.7682 9.14239 37.3138 9.68814C37.8593 10.2339 38.1681 10.9724 38.1736 11.744C38.1791 12.5156 37.8807 13.2584 37.343 13.8118L31.3083 19.4904C31.1003 19.6879 30.9547 19.9419 30.8895 20.2212C30.8242 20.5005 30.8422 20.7927 30.9411 21.0619L36.4966 36.3406L34.0126 38.8191Z" fill="#0A6BB2"/>
</svg>
