<svg width="24" height="27" viewBox="0 0 24 27" fill="none" xmlns="http://www.w3.org/2000/svg">
<path d="M21.375 9.375H8.25V6.5625C8.25 5.56794 8.64509 4.61411 9.34835 3.91085C10.0516 3.20759 11.0054 2.8125 12 2.8125C13.8012 2.8125 15.4219 4.10156 15.7688 5.81133C15.8202 6.05293 15.965 6.26444 16.1716 6.39989C16.3782 6.53534 16.6299 6.58378 16.872 6.53468C17.1141 6.48558 17.327 6.34291 17.4645 6.13768C17.602 5.93245 17.6529 5.68125 17.6062 5.43867C17.0766 2.83008 14.7188 0.9375 12 0.9375C10.5086 0.939051 9.07879 1.53218 8.02424 2.58674C6.96968 3.64129 6.37655 5.07113 6.375 6.5625V9.375H2.625C2.12772 9.375 1.65081 9.57254 1.29917 9.92418C0.947544 10.2758 0.75 10.7527 0.75 11.25V24.375C0.75 24.8723 0.947544 25.3492 1.29917 25.7008C1.65081 26.0525 2.12772 26.25 2.625 26.25H21.375C21.8723 26.25 22.3492 26.0525 22.7008 25.7008C23.0525 25.3492 23.25 24.8723 23.25 24.375V11.25C23.25 10.7527 23.0525 10.2758 22.7008 9.92418C22.3492 9.57254 21.8723 9.375 21.375 9.375ZM21.375 24.375H2.625V11.25H21.375V24.375ZM12 13.125C11.212 13.1253 10.4505 13.4091 9.85451 13.9246C9.25855 14.4401 8.868 15.1528 8.75423 15.9325C8.64047 16.7122 8.81109 17.5068 9.23491 18.1711C9.65874 18.8354 10.3075 19.325 11.0625 19.5504V21.5625C11.0625 21.8111 11.1613 22.0496 11.3371 22.2254C11.5129 22.4012 11.7514 22.5 12 22.5C12.2486 22.5 12.4871 22.4012 12.6629 22.2254C12.8387 22.0496 12.9375 21.8111 12.9375 21.5625V19.5504C13.6925 19.325 14.3413 18.8354 14.7651 18.1711C15.1889 17.5068 15.3595 16.7122 15.2458 15.9325C15.132 15.1528 14.7414 14.4401 14.1455 13.9246C13.5495 13.4091 12.788 13.1253 12 13.125ZM12 17.8125C11.7219 17.8125 11.45 17.73 11.2187 17.5755C10.9875 17.421 10.8072 17.2014 10.7008 16.9444C10.5944 16.6874 10.5665 16.4047 10.6208 16.1319C10.675 15.8591 10.809 15.6085 11.0056 15.4119C11.2023 15.2152 11.4529 15.0813 11.7257 15.027C11.9984 14.9728 12.2812 15.0006 12.5381 15.107C12.7951 15.2135 13.0147 15.3937 13.1693 15.625C13.3238 15.8562 13.4062 16.1281 13.4062 16.4062C13.4062 16.7792 13.2581 17.1369 12.9944 17.4006C12.7306 17.6643 12.373 17.8125 12 17.8125Z" fill="#0871B5"/>
</svg>
