<svg width="30" height="30" viewBox="0 0 30 30" fill="none" xmlns="http://www.w3.org/2000/svg">
<path d="M29.801 12.6458L26.8104 6.66219C26.7002 6.44196 26.5478 6.24558 26.3617 6.08428C26.1756 5.92298 25.9596 5.79991 25.726 5.7221C25.4923 5.64429 25.2456 5.61327 25 5.63081C24.7544 5.64834 24.5146 5.71409 24.2944 5.8243L21.3799 7.28094L15.2405 5.65672C15.083 5.61573 14.9176 5.61573 14.76 5.65672L8.62057 7.28094L5.70611 5.8243C5.4859 5.71409 5.24613 5.64834 5.0005 5.63081C4.75487 5.61327 4.50819 5.64429 4.27455 5.7221C4.04091 5.79991 3.82489 5.92298 3.63882 6.08428C3.45275 6.24558 3.30027 6.44196 3.1901 6.66219L0.199473 12.6446C0.0892649 12.8648 0.023516 13.1046 0.00598059 13.3502C-0.0115548 13.5959 0.0194669 13.8425 0.097274 14.0762C0.175081 14.3098 0.29815 14.5258 0.459451 14.7119C0.620753 14.898 0.817129 15.0505 1.03736 15.1606L4.20143 16.7438L10.7042 21.388C10.8 21.4561 10.9077 21.5058 11.0217 21.5345L18.5217 23.4095C18.6788 23.4488 18.8434 23.4469 18.9995 23.4038C19.1556 23.3606 19.2978 23.2778 19.4124 23.1634L25.8659 16.7087L28.962 15.1606C29.4065 14.9381 29.7444 14.5482 29.9015 14.0767C30.0586 13.6051 30.0221 13.0904 29.7999 12.6458H29.801ZM23.3686 16.5563L19.3362 13.3266C19.1555 13.182 18.9278 13.1092 18.6967 13.1224C18.4656 13.1356 18.2476 13.2338 18.0846 13.3981C15.9975 15.5005 13.6713 15.2345 12.1878 14.297L17.2549 9.37508H20.9827L24.1713 15.7513L23.3686 16.5563ZM4.86705 7.50008L7.26588 8.69774L4.26939 14.6802L1.87525 13.4837L4.86705 7.50008ZM18.4608 21.4606L11.651 19.7591L5.88541 15.6411L9.16666 9.0786L15.0003 7.53289L16.1487 7.83641L10.8753 12.9552L10.8659 12.9657C10.6674 13.1642 10.516 13.4048 10.4229 13.6696C10.3297 13.9344 10.2973 14.2168 10.3279 14.4959C10.3585 14.7749 10.4513 15.0436 10.5996 15.2819C10.7479 15.5203 10.9478 15.7223 11.1846 15.8731C13.594 17.4118 16.5014 17.1622 18.7913 15.2872L22.0315 17.8899L18.4608 21.4606ZM25.7264 14.679L22.7358 8.70243L25.1335 7.50008L28.1253 13.4837L25.7264 14.679ZM15.4432 25.5388C15.3926 25.7414 15.2757 25.9213 15.1112 26.0499C14.9467 26.1786 14.7439 26.2486 14.535 26.2489C14.458 26.2488 14.3813 26.2394 14.3065 26.2208L9.4233 24.9997C9.30909 24.9715 9.2013 24.9218 9.10572 24.8532L6.01783 22.6477C5.82797 22.4987 5.70292 22.2821 5.66874 22.0431C5.63455 21.8042 5.69386 21.5612 5.83431 21.3649C5.97476 21.1686 6.18553 21.034 6.42273 20.9892C6.65993 20.9443 6.90527 20.9928 7.10768 21.1243L10.0503 23.2266L14.7659 24.4032C15.007 24.4635 15.2144 24.6172 15.3423 24.8303C15.4702 25.0435 15.5082 25.2987 15.4479 25.5399L15.4432 25.5388Z" fill="#0871B5"/>
</svg>
