<svg width="30" height="30" viewBox="0 0 30 30" fill="none" xmlns="http://www.w3.org/2000/svg">
<path d="M23.659 6.40547C22.5375 5.27271 21.2036 4.37228 19.7337 3.75575C18.2637 3.13922 16.6866 2.81868 15.0926 2.8125H15C11.7677 2.8125 8.66774 4.09654 6.38214 6.38214C4.09654 8.66774 2.8125 11.7677 2.8125 15V21.5625C2.8125 22.3084 3.10882 23.0238 3.63626 23.5512C4.16371 24.0787 4.87908 24.375 5.625 24.375H7.5C8.24592 24.375 8.96129 24.0787 9.48874 23.5512C10.0162 23.0238 10.3125 22.3084 10.3125 21.5625V16.875C10.3125 16.1291 10.0162 15.4137 9.48874 14.8863C8.96129 14.3588 8.24592 14.0625 7.5 14.0625H4.72969C4.91049 12.1077 5.64473 10.245 6.84636 8.69262C8.04799 7.14024 9.66721 5.96254 11.5143 5.29754C13.3613 4.63254 15.3596 4.5078 17.275 4.93794C19.1904 5.36808 20.9436 6.33528 22.3289 7.72617C24.0221 9.42809 25.0636 11.6708 25.2715 14.0625H22.5C21.7541 14.0625 21.0387 14.3588 20.5113 14.8863C19.9838 15.4137 19.6875 16.1291 19.6875 16.875V21.5625C19.6875 22.3084 19.9838 23.0238 20.5113 23.5512C21.0387 24.0787 21.7541 24.375 22.5 24.375H25.3125C25.3125 25.1209 25.0162 25.8363 24.4887 26.3637C23.9613 26.8912 23.2459 27.1875 22.5 27.1875H15.9375C15.6889 27.1875 15.4504 27.2863 15.2746 27.4621C15.0988 27.6379 15 27.8764 15 28.125C15 28.3736 15.0988 28.6121 15.2746 28.7879C15.4504 28.9637 15.6889 29.0625 15.9375 29.0625H22.5C23.7432 29.0625 24.9355 28.5686 25.8146 27.6896C26.6936 26.8105 27.1875 25.6182 27.1875 24.375V15C27.1936 13.4058 26.8851 11.826 26.2796 10.3512C25.6741 8.87635 24.7836 7.53551 23.659 6.40547ZM7.5 15.9375C7.74864 15.9375 7.9871 16.0363 8.16291 16.2121C8.33873 16.3879 8.4375 16.6264 8.4375 16.875V21.5625C8.4375 21.8111 8.33873 22.0496 8.16291 22.2254C7.9871 22.4012 7.74864 22.5 7.5 22.5H5.625C5.37636 22.5 5.1379 22.4012 4.96209 22.2254C4.78627 22.0496 4.6875 21.8111 4.6875 21.5625V15.9375H7.5ZM22.5 22.5C22.2514 22.5 22.0129 22.4012 21.8371 22.2254C21.6613 22.0496 21.5625 21.8111 21.5625 21.5625V16.875C21.5625 16.6264 21.6613 16.3879 21.8371 16.2121C22.0129 16.0363 22.2514 15.9375 22.5 15.9375H25.3125V22.5H22.5Z" fill="#0871B5"/>
</svg>
