<svg width="30" height="21" viewBox="0 0 30 21" fill="none" xmlns="http://www.w3.org/2000/svg">
<path d="M21.5625 6.1166V5.46387C21.5625 2.5248 17.1293 0.307617 11.25 0.307617C5.3707 0.307617 0.9375 2.5248 0.9375 5.46387V10.1514C0.9375 12.5994 4.01367 14.5447 8.4375 15.1271V15.7764C8.4375 18.7154 12.8707 20.9326 18.75 20.9326C24.6293 20.9326 29.0625 18.7154 29.0625 15.7764V11.0889C29.0625 8.66309 26.0836 6.71543 21.5625 6.1166ZM27.1875 11.0889C27.1875 12.6381 23.5793 14.3701 18.75 14.3701C18.3129 14.3701 17.8793 14.3549 17.4516 14.3268C19.9793 13.4057 21.5625 11.9092 21.5625 10.1514V8.01152C25.0629 8.53301 27.1875 9.94863 27.1875 11.0889ZM8.4375 13.2275V10.4396C9.37005 10.5612 10.3096 10.6214 11.25 10.6201C12.1904 10.6214 13.1299 10.5612 14.0625 10.4396V13.2275C13.1313 13.3651 12.1913 13.4336 11.25 13.4326C10.3087 13.4336 9.36867 13.3651 8.4375 13.2275ZM19.6875 8.50254V10.1514C19.6875 11.1346 18.2332 12.1904 15.9375 12.8314V10.0928C17.4504 9.72598 18.7313 9.17988 19.6875 8.50254ZM11.25 2.18262C16.0793 2.18262 19.6875 3.91465 19.6875 5.46387C19.6875 7.01309 16.0793 8.74512 11.25 8.74512C6.4207 8.74512 2.8125 7.01309 2.8125 5.46387C2.8125 3.91465 6.4207 2.18262 11.25 2.18262ZM2.8125 10.1514V8.50254C3.76875 9.17988 5.04961 9.72598 6.5625 10.0928V12.8314C4.2668 12.1904 2.8125 11.1346 2.8125 10.1514ZM10.3125 15.7764V15.2877C10.6207 15.2994 10.9324 15.3076 11.25 15.3076C11.7047 15.3076 12.1488 15.2924 12.5848 15.2666C13.0691 15.44 13.5623 15.5871 14.0625 15.7072V18.4564C11.7668 17.8154 10.3125 16.7596 10.3125 15.7764ZM15.9375 18.8525V16.0576C16.8698 16.1829 17.8094 16.2456 18.75 16.2451C19.6904 16.2464 20.6299 16.1862 21.5625 16.0646V18.8525C19.6975 19.126 17.8025 19.126 15.9375 18.8525ZM23.4375 18.4564V15.7178C24.9504 15.351 26.2313 14.8049 27.1875 14.1275V15.7764C27.1875 16.7596 25.7332 17.8154 23.4375 18.4564Z" fill="#0871B5"/>
</svg>
