<svg width="45" height="44" viewBox="0 0 45 44" fill="none" xmlns="http://www.w3.org/2000/svg">
<circle cx="24" cy="21" r="21" fill="#F9D423"/>
<circle cx="21" cy="23" r="21" fill="#0871B5"/>
<path d="M31.3359 32.4687C31.2744 32.5457 31.1983 32.6098 31.112 32.6574C31.0257 32.7049 30.9308 32.735 30.8329 32.7459C30.7349 32.7568 30.6358 32.7482 30.5411 32.7208C30.4465 32.6933 30.3582 32.6475 30.2813 32.5859C30.2466 32.5578 26.6419 29.7499 21 29.7499C15.3581 29.7499 11.7525 32.5624 11.7188 32.5868C11.6417 32.6484 11.5534 32.6942 11.4587 32.7216C11.364 32.749 11.2648 32.7575 11.1668 32.7465C10.9689 32.7245 10.7879 32.6247 10.6636 32.4692C10.5393 32.3136 10.4818 32.1151 10.5039 31.9172C10.526 31.7193 10.6257 31.5383 10.7813 31.414C10.9341 31.2921 14.3925 28.5771 19.9959 28.2781C19.7045 27.1167 19.6003 25.9163 19.6875 24.7221C19.8506 22.6868 20.7113 19.9756 23.7188 17.9271C23.2056 17.7999 22.678 17.7403 22.1494 17.7499C20.3681 17.8081 19.2488 18.8478 18.7275 20.9299C18.6873 21.0925 18.5938 21.237 18.462 21.3403C18.3301 21.4436 18.1675 21.4998 18 21.4999C17.9387 21.5003 17.8775 21.4927 17.8181 21.4774C17.6252 21.4292 17.4593 21.3063 17.357 21.1357C17.2547 20.9652 17.2243 20.761 17.2725 20.5681C18.1397 17.104 20.3766 16.3099 22.1006 16.2556C22.7854 16.2407 23.469 16.3179 24.1331 16.4853C23.7741 15.8918 23.2491 15.2731 22.5197 14.9618C21.5822 14.5643 20.4413 14.7378 19.1156 15.4784C18.9416 15.5754 18.7361 15.5992 18.5445 15.5447C18.3529 15.4902 18.1907 15.3618 18.0938 15.1878C17.9968 15.0137 17.9729 14.8083 18.0274 14.6166C18.0819 14.425 18.2103 14.2629 18.3844 14.1659C20.1413 13.1862 21.7331 12.9903 23.1169 13.5846C24.2878 14.0871 25.0603 15.064 25.5422 15.9284C26.1216 15.0246 26.8434 14.4124 27.6413 14.1528C28.7531 13.7899 29.9513 14.0853 31.2038 15.0312C31.3554 15.1535 31.4536 15.33 31.4774 15.5233C31.5013 15.7167 31.4489 15.9118 31.3315 16.0672C31.2141 16.2227 31.0407 16.3263 30.8482 16.3562C30.6557 16.3861 30.4591 16.3399 30.3 16.2274C29.4647 15.5965 28.7278 15.3781 28.1109 15.5778C27.4275 15.7981 26.9044 16.5153 26.5763 17.1349C27.2509 17.2717 27.8999 17.513 28.5 17.8503C29.8697 18.6331 31.5 20.2924 31.5 23.7509C31.5 23.9498 31.421 24.1406 31.2803 24.2812C31.1397 24.4219 30.9489 24.5009 30.75 24.5009C30.5511 24.5009 30.3603 24.4219 30.2197 24.2812C30.079 24.1406 30 23.9498 30 23.7509C30 21.5515 29.2434 20.0009 27.75 19.1571C27.576 19.0583 27.396 18.9707 27.2109 18.8946C27.6832 19.8547 27.8488 20.9367 27.6853 21.994C27.5674 22.7763 27.2843 23.5244 26.8547 24.1887C26.7397 24.3499 26.5657 24.4592 26.3705 24.4925C26.1753 24.5259 25.9748 24.4807 25.8128 24.3669C25.6508 24.253 25.5404 24.0797 25.5056 23.8847C25.4709 23.6898 25.5147 23.489 25.6275 23.3262C25.6969 23.224 27.1584 21.0406 25.3219 18.6978C22.7906 20.1237 21.3947 22.1899 21.1819 24.8468C21.099 25.9978 21.2205 27.1544 21.5409 28.2631C27.4144 28.4328 31.0584 31.294 31.2159 31.4187C31.3705 31.5424 31.4698 31.7223 31.4923 31.919C31.5148 32.1157 31.4586 32.3133 31.3359 32.4687ZM11.25 24.1249C11.25 23.6058 11.404 23.0983 11.6924 22.6666C11.9808 22.2349 12.3908 21.8984 12.8705 21.6998C13.3501 21.5011 13.8779 21.4491 14.3871 21.5504C14.8963 21.6517 15.364 21.9017 15.7312 22.2688C16.0983 22.6359 16.3483 23.1036 16.4496 23.6128C16.5509 24.122 16.4989 24.6498 16.3002 25.1295C16.1015 25.6091 15.7651 26.0191 15.3334 26.3076C14.9017 26.596 14.3942 26.7499 13.875 26.7499C13.1788 26.7499 12.5111 26.4734 12.0188 25.9811C11.5266 25.4888 11.25 24.8211 11.25 24.1249ZM12.75 24.1249C12.75 24.3475 12.816 24.565 12.9396 24.75C13.0632 24.935 13.2389 25.0792 13.4445 25.1643C13.6501 25.2495 13.8763 25.2717 14.0945 25.2283C14.3127 25.1849 14.5132 25.0778 14.6705 24.9204C14.8278 24.7631 14.935 24.5627 14.9784 24.3444C15.0218 24.1262 14.9995 23.9 14.9144 23.6944C14.8292 23.4889 14.685 23.3132 14.5 23.1895C14.315 23.0659 14.0975 22.9999 13.875 22.9999C13.5766 22.9999 13.2905 23.1185 13.0795 23.3295C12.8685 23.5404 12.75 23.8266 12.75 24.1249Z" fill="white"/>
</svg>
