<svg width="45" height="42" viewBox="0 0 45 42" fill="none" xmlns="http://www.w3.org/2000/svg">
<circle cx="24" cy="21" r="21" fill="#F9D423"/>
<circle cx="21" cy="21" r="21" fill="#0871B5"/>
<path d="M26.3747 20.7072L29.1066 18.1366L29.1225 18.1207C29.6852 17.558 30.0013 16.7949 30.0013 15.9991C30.0013 15.2034 29.6852 14.4402 29.1225 13.8776C28.5598 13.3149 27.7967 12.9988 27.0009 12.9988C26.2052 12.9988 25.4421 13.3149 24.8794 13.8776C24.8794 13.8832 24.8691 13.8879 24.8634 13.8935L22.2928 16.6254L14.5116 13.7941C14.3775 13.7453 14.2322 13.7358 14.0929 13.7667C13.9536 13.7976 13.8259 13.8676 13.725 13.9685L11.475 16.2185C11.3966 16.297 11.3366 16.3918 11.2993 16.4963C11.2619 16.6008 11.2483 16.7122 11.2592 16.8226C11.2701 16.933 11.3054 17.0395 11.3625 17.1347C11.4196 17.2298 11.4971 17.311 11.5894 17.3726L17.5791 21.3654L16.1897 22.7501H14.25C14.0514 22.7502 13.8609 22.829 13.7203 22.9694L11.4703 25.2194C11.3826 25.307 11.3179 25.4149 11.282 25.5335C11.2462 25.6522 11.2403 25.7779 11.2649 25.8993C11.2895 26.0208 11.3439 26.1343 11.4231 26.2296C11.5023 26.325 11.6039 26.3992 11.7188 26.4457L15.1706 27.8266L16.5488 31.2719L16.5544 31.2869C16.6021 31.4023 16.6778 31.504 16.7747 31.5827C16.8716 31.6615 16.9867 31.7147 17.1094 31.7377C17.2321 31.7607 17.3587 31.7527 17.4775 31.7144C17.5964 31.6762 17.7038 31.6088 17.79 31.5185L20.0278 29.2797C20.0978 29.2104 20.1535 29.1279 20.1916 29.037C20.2298 28.9461 20.2496 28.8486 20.25 28.7501V26.8104L21.6338 25.4266L25.6266 31.4163C25.6881 31.5086 25.7694 31.5861 25.8645 31.6432C25.9596 31.7003 26.0662 31.7355 26.1765 31.7465C26.2869 31.7574 26.3984 31.7437 26.5028 31.7064C26.6073 31.6691 26.7022 31.6091 26.7806 31.5307L29.0306 29.2807C29.1315 29.1798 29.2015 29.0521 29.2324 28.9128C29.2633 28.7735 29.2538 28.6282 29.205 28.4941L26.3747 20.7072ZM26.3681 29.8226L22.3753 23.8338C22.3141 23.7408 22.233 23.6626 22.1378 23.6049C22.0426 23.5472 21.9358 23.5114 21.825 23.5001C21.7997 23.5001 21.7753 23.5001 21.7509 23.5001C21.6524 23.5001 21.5547 23.5196 21.4637 23.5574C21.3726 23.5952 21.2899 23.6506 21.2203 23.7204L18.9703 25.9704C18.8296 26.1108 18.7503 26.3013 18.75 26.5001V28.4397L17.5247 29.6651L16.4466 26.9688C16.4088 26.8752 16.3526 26.7902 16.2813 26.7188C16.2099 26.6474 16.1249 26.5912 16.0313 26.5535L13.3369 25.4754L14.5613 24.2501H16.5C16.5985 24.2501 16.6961 24.2308 16.7871 24.1932C16.8782 24.1555 16.9609 24.1003 17.0306 24.0307L19.2806 21.7807C19.3592 21.7022 19.4194 21.6073 19.4568 21.5027C19.4942 21.3982 19.5079 21.2866 19.497 21.1761C19.4861 21.0656 19.4507 20.9589 19.3935 20.8637C19.3363 20.7685 19.2587 20.6872 19.1663 20.6257L13.1775 16.6319L14.4431 15.3672L22.245 18.2041C22.3825 18.2546 22.5317 18.2638 22.6743 18.2305C22.8169 18.1972 22.9467 18.1228 23.0475 18.0166L25.9481 14.9313C26.2309 14.6569 26.6102 14.5047 27.0042 14.5076C27.3982 14.5106 27.7753 14.6685 28.0538 14.9472C28.3324 15.2258 28.4901 15.6029 28.4929 15.997C28.4957 16.391 28.3433 16.7703 28.0688 17.0529L24.9872 19.9526C24.881 20.0534 24.8067 20.1831 24.7733 20.3257C24.74 20.4684 24.7492 20.6176 24.7997 20.7551L27.6366 28.5569L26.3681 29.8226Z" fill="white"/>
</svg>
