<svg width="45" height="42" viewBox="0 0 45 42" fill="none" xmlns="http://www.w3.org/2000/svg">
<circle cx="24" cy="21" r="21" fill="#F9D423"/>
<circle cx="21" cy="21" r="21" fill="#0871B5"/>
<path d="M31.5 20.5H28.8103L24.75 16.4397C24.6112 16.2998 24.446 16.1889 24.264 16.1134C24.082 16.0379 23.8867 15.9994 23.6897 16H13.1512C12.9049 16.0005 12.6624 16.0616 12.4453 16.178C12.2281 16.2944 12.043 16.4626 11.9062 16.6675L9.12562 20.8338C9.04392 20.9572 9.00024 21.102 9 21.25V25.75C9 26.1478 9.15804 26.5294 9.43934 26.8107C9.72064 27.092 10.1022 27.25 10.5 27.25H12.0938C12.259 27.8953 12.6343 28.4673 13.1605 28.8757C13.6867 29.2842 14.3339 29.5059 15 29.5059C15.6661 29.5059 16.3133 29.2842 16.8395 28.8757C17.3657 28.4673 17.741 27.8953 17.9062 27.25H24.0938C24.259 27.8953 24.6343 28.4673 25.1605 28.8757C25.6867 29.2842 26.3339 29.5059 27 29.5059C27.6661 29.5059 28.3133 29.2842 28.8395 28.8757C29.3657 28.4673 29.741 27.8953 29.9062 27.25H31.5C31.8978 27.25 32.2794 27.092 32.5607 26.8107C32.842 26.5294 33 26.1478 33 25.75V22C33 21.6022 32.842 21.2207 32.5607 20.9393C32.2794 20.658 31.8978 20.5 31.5 20.5ZM13.1512 17.5H23.6897L26.6897 20.5H11.1562L13.1512 17.5ZM15 28C14.7033 28 14.4133 27.912 14.1666 27.7472C13.92 27.5824 13.7277 27.3481 13.6142 27.074C13.5006 26.7999 13.4709 26.4983 13.5288 26.2074C13.5867 25.9164 13.7296 25.6491 13.9393 25.4393C14.1491 25.2296 14.4164 25.0867 14.7074 25.0288C14.9983 24.971 15.2999 25.0007 15.574 25.1142C15.8481 25.2277 16.0824 25.42 16.2472 25.6667C16.412 25.9133 16.5 26.2033 16.5 26.5C16.5 26.8978 16.342 27.2794 16.0607 27.5607C15.7794 27.842 15.3978 28 15 28ZM27 28C26.7033 28 26.4133 27.912 26.1666 27.7472C25.92 27.5824 25.7277 27.3481 25.6142 27.074C25.5006 26.7999 25.4709 26.4983 25.5288 26.2074C25.5867 25.9164 25.7296 25.6491 25.9393 25.4393C26.1491 25.2296 26.4164 25.0867 26.7074 25.0288C26.9983 24.971 27.2999 25.0007 27.574 25.1142C27.8481 25.2277 28.0824 25.42 28.2472 25.6667C28.412 25.9133 28.5 26.2033 28.5 26.5C28.5 26.8978 28.342 27.2794 28.0607 27.5607C27.7794 27.842 27.3978 28 27 28ZM31.5 25.75H29.9062C29.741 25.1047 29.3657 24.5327 28.8395 24.1243C28.3133 23.7158 27.6661 23.4941 27 23.4941C26.3339 23.4941 25.6867 23.7158 25.1605 24.1243C24.6343 24.5327 24.259 25.1047 24.0938 25.75H17.9062C17.741 25.1047 17.3657 24.5327 16.8395 24.1243C16.3133 23.7158 15.6661 23.4941 15 23.4941C14.3339 23.4941 13.6867 23.7158 13.1605 24.1243C12.6343 24.5327 12.259 25.1047 12.0938 25.75H10.5V22H31.5V25.75Z" fill="white"/>
</svg>
