<svg width="45" height="42" viewBox="0 0 45 42" fill="none" xmlns="http://www.w3.org/2000/svg">
<circle cx="24" cy="21" r="21" fill="#F9D423"/>
<circle cx="21" cy="21" r="21" fill="#0871B5"/>
<path d="M29.7607 14.7747L25.6698 10.7363C25.5937 10.6613 25.5035 10.6018 25.4042 10.5613C25.3048 10.5207 25.1984 10.4999 25.0909 10.5H16.9091C16.4751 10.5 16.0589 10.6702 15.752 10.9731C15.4451 11.2761 15.2727 11.687 15.2727 12.1154V13.7308H13.6364C13.2024 13.7308 12.7862 13.901 12.4793 14.2039C12.1724 14.5068 12 14.9177 12 15.3462V29.8846C12 30.313 12.1724 30.7239 12.4793 31.0269C12.7862 31.3298 13.2024 31.5 13.6364 31.5H25.0909C25.5249 31.5 25.9411 31.3298 26.248 31.0269C26.5549 30.7239 26.7273 30.313 26.7273 29.8846V28.2692H28.3636C28.7976 28.2692 29.2138 28.099 29.5207 27.7961C29.8276 27.4932 30 27.0823 30 26.6538V15.3462C30.0001 15.2401 29.979 15.135 29.9379 15.0369C29.8969 14.9389 29.8366 14.8498 29.7607 14.7747ZM25.0909 29.8846H13.6364V15.3462H21.4797L25.0909 18.9111V27.4454C25.0909 27.4514 25.0909 27.4565 25.0909 27.4615C25.0909 27.4666 25.0909 27.4716 25.0909 27.4777V29.8846ZM28.3636 26.6538H26.7273V18.5769C26.7274 18.4708 26.7063 18.3657 26.6652 18.2677C26.6241 18.1696 26.5639 18.0805 26.488 18.0055L22.397 13.967C22.321 13.892 22.2307 13.8326 22.1314 13.792C22.0321 13.7515 21.9257 13.7307 21.8182 13.7308H16.9091V12.1154H24.7524L28.3636 15.6803V26.6538ZM22.6364 23.4231C22.6364 23.6373 22.5502 23.8427 22.3967 23.9942C22.2433 24.1457 22.0352 24.2308 21.8182 24.2308H16.9091C16.6921 24.2308 16.484 24.1457 16.3305 23.9942C16.1771 23.8427 16.0909 23.6373 16.0909 23.4231C16.0909 23.2089 16.1771 23.0034 16.3305 22.852C16.484 22.7005 16.6921 22.6154 16.9091 22.6154H21.8182C22.0352 22.6154 22.2433 22.7005 22.3967 22.852C22.5502 23.0034 22.6364 23.2089 22.6364 23.4231ZM22.6364 26.6538C22.6364 26.8681 22.5502 27.0735 22.3967 27.225C22.2433 27.3764 22.0352 27.4615 21.8182 27.4615H16.9091C16.6921 27.4615 16.484 27.3764 16.3305 27.225C16.1771 27.0735 16.0909 26.8681 16.0909 26.6538C16.0909 26.4396 16.1771 26.2342 16.3305 26.0827C16.484 25.9312 16.6921 25.8462 16.9091 25.8462H21.8182C22.0352 25.8462 22.2433 25.9312 22.3967 26.0827C22.5502 26.2342 22.6364 26.4396 22.6364 26.6538Z" fill="white"/>
</svg>
