<svg width="18" height="26" viewBox="0 0 18 26" fill="none" xmlns="http://www.w3.org/2000/svg">
<path d="M17.4375 6.86406V2.6875C17.4375 2.19022 17.24 1.71331 16.8883 1.36167C16.5367 1.01004 16.0598 0.8125 15.5625 0.8125H2.4375C1.94022 0.8125 1.46331 1.01004 1.11167 1.36167C0.760044 1.71331 0.5625 2.19022 0.5625 2.6875V6.90625C0.563133 7.19722 0.631184 7.48409 0.761311 7.74434C0.891438 8.0046 1.0801 8.23116 1.3125 8.40625L7.43789 13L1.3125 17.5938C1.0801 17.7688 0.891438 17.9954 0.761311 18.2557C0.631184 18.5159 0.563133 18.8028 0.5625 19.0938V23.3125C0.5625 23.8098 0.760044 24.2867 1.11167 24.6383C1.46331 24.99 1.94022 25.1875 2.4375 25.1875H15.5625C16.0598 25.1875 16.5367 24.99 16.8883 24.6383C17.24 24.2867 17.4375 23.8098 17.4375 23.3125V19.1359C17.4367 18.8463 17.3692 18.5607 17.2402 18.3013C17.1111 18.042 16.924 17.8159 16.6934 17.6406L10.5551 13L16.6934 8.35938C16.9242 8.18428 17.1114 7.95823 17.2405 7.69885C17.3696 7.43947 17.437 7.15378 17.4375 6.86406ZM14.8863 18.625H3.06211L9 14.1719L14.8863 18.625ZM2.4375 23.3125V20.5H15.5625V23.3125H2.4375ZM15.5625 6.86406L9 11.8281L2.4375 6.90625V2.6875H15.5625V6.86406Z" fill="#0871B5"/>
</svg>
